<svg xmlns="http://www.w3.org/2000/svg" viewBox="0 0 1000 1000" width="1000" height="1000" preserveAspectRatio="xMidYMid meet" style="width: 100%; height: 100%; transform: translate3d(0px, 0px, 0px);"><defs><clipPath id="__lottie_element_2"><rect width="1000" height="1000" x="0" y="0"></rect></clipPath><mask id="__lottie_element_22"><path fill="#ffffff" clip-rule="nonzero" d="M0,0  h1000 v1000 h-1000 v-1000  M372.5,299.0776672363281 C372.5,299.0776672363281 -64.5,299.0776672363281 -64.5,299.0776672363281 C-64.5,299.0776672363281 -64.5,440.0776672363281 -64.5,440.0776672363281 C-64.5,440.0776672363281 372.5,440.0776672363281 372.5,440.0776672363281 C372.5,440.0776672363281 372.5,299.0776672363281 372.5,299.0776672363281" fill-opacity="1"></path></mask></defs><g clip-path="url(#__lottie_element_2)"><g transform="matrix(1,0,0,1,331.75,300.75)" opacity="1" style="display: block;"><g opacity="1" transform="matrix(1,0,0,1,169.25,184.25)"><path fill="rgb(111,78,54)" fill-opacity="1" d=" M169,-41 C169,-41 169,184 169,184 C169,184 -169,184 -169,184 C-169,184 -169,-41 -169,-41 C-169,-41 0,-184 0,-184 C0,-184 169,-41 169,-41z"></path></g></g><g transform="matrix(0.9003536701202393,-0.06962661445140839,0.08447243273258209,1.0923274755477905,485.8238220214844,456.4168395996094)" opacity="0.9990000000000023" style="display: none;"><g opacity="1" transform="matrix(1,0,0,1,0,0)"><path fill="rgb(20,204,237)" fill-opacity="1" d=" M-165.875,-56.5 C-165.875,-56.5 167.68800354003906,-56.5 167.68800354003906,-56.5"></path><path stroke-linecap="round" stroke-linejoin="miter" fill-opacity="0" stroke-miterlimit="4" stroke="rgb(111,78,54)" stroke-opacity="1" stroke-width="6" d=" M-165.875,-56.5 C-165.875,-56.5 167.68800354003906,-56.5 167.68800354003906,-56.5"></path></g></g><g mask="url(#__lottie_element_22)" transform="matrix(1,0,0,1,339.5,370.5)" opacity="1" style="display: block;"><g opacity="1" transform="matrix(1,0,0,1,161.5,117.5)"><path fill="rgb(252,230,231)" fill-opacity="1" d=" M144,110 C144,110 -144,110 -144,110 C-149.5229949951172,110 -154,105.52300262451172 -154,100 C-154,100 -154,-100 -154,-100 C-154,-105.52300262451172 -149.5229949951172,-110 -144,-110 C-144,-110 144,-110 144,-110 C149.52200317382812,-110 154,-105.52300262451172 154,-100 C154,-100 154,100 154,100 C154,105.52300262451172 149.52200317382812,110 144,110z"></path></g><g opacity="1" transform="matrix(1,0,0,1,161.5,117.5)"><path stroke-linecap="butt" stroke-linejoin="miter" fill-opacity="0" stroke-miterlimit="10" stroke="rgb(111,78,54)" stroke-opacity="1" stroke-width="3" d=" M144,110 C144,110 -144,110 -144,110 C-149.5229949951172,110 -154,105.52300262451172 -154,100 C-154,100 -154,-100 -154,-100 C-154,-105.52300262451172 -149.5229949951172,-110 -144,-110 C-144,-110 144,-110 144,-110 C149.52200317382812,-110 154,-105.52300262451172 154,-100 C154,-100 154,100 154,100 C154,105.52300262451172 149.52200317382812,110 144,110z"></path></g><g opacity="1" transform="matrix(1,0,0,1,161.4980010986328,109.80999755859375)"><path fill="rgb(241,115,117)" fill-opacity="1" d=" M66.16899871826172,-23.80900001525879 C51.61399841308594,-62.31399917602539 4.367000102996826,-45.03900146484375 -0.0020000000949949026,-25.809999465942383 C-6.011000156402588,-46.301998138427734 -52.0989990234375,-61.5890007019043 -66.16400146484375,-23.7810001373291 C-81.82499694824219,18.32900047302246 -5.464000225067139,56.119998931884766 0,62.3129997253418 C5.455999851226807,57.393001556396484 81.82499694824219,17.615999221801758 66.16899871826172,-23.80900001525879z"></path></g></g><g transform="matrix(1,0,0,1,331.75,443.75)" opacity="1" style="display: block;"><g opacity="1" transform="matrix(1,0,0,1,169.25,114.19499969482422)"><path fill="rgb(243,138,140)" fill-opacity="1" d=" M-166.5,108.55500030517578 C-166.5,108.55500030517578 -166.5,-108.55500030517578 -166.5,-108.55500030517578 C-166.5,-108.55500030517578 0,32.32899856567383 0,32.32899856567383 C0,32.32899856567383 166.5,-108.55500030517578 166.5,-108.55500030517578 C166.5,-108.55500030517578 166.5,108.55500030517578 166.5,108.55500030517578 C166.5,108.55500030517578 -166.5,108.55500030517578 -166.5,108.55500030517578z"></path></g><g opacity="1" transform="matrix(1,0,0,1,169.25,112.75)"><path fill="rgb(111,78,54)" fill-opacity="1" d=" M164,-101.71900177001953 C164,-101.71900177001953 164,107.5 164,107.5 C164,107.5 -164,107.5 -164,107.5 C-164,107.5 -164,-101.71900177001953 -164,-101.71900177001953 C-164,-101.71900177001953 -3.2290000915527344,34.31700134277344 -3.2290000915527344,34.31700134277344 C-3.2290000915527344,34.31700134277344 0,37.04999923706055 0,37.04999923706055 C0,37.04999923706055 3.2290000915527344,34.31700134277344 3.2290000915527344,34.31700134277344 C3.2290000915527344,34.31700134277344 164,-101.71900177001953 164,-101.71900177001953z M169,-112.5 C169,-112.5 0,30.5 0,30.5 C0,30.5 -169,-112.5 -169,-112.5 C-169,-112.5 -169,112.5 -169,112.5 C-169,112.5 169,112.5 169,112.5 C169,112.5 169,-112.5 169,-112.5z"></path></g></g><g transform="matrix(1,0,0,1,410,549.6300048828125)" opacity="1" style="display: block;"><g opacity="1" transform="matrix(1,0,0,1,127.5,57.185001373291016)"><path fill="rgb(241,115,117)" fill-opacity="1" d=" M127.5,-57.185001373291016 C127.5,-57.185001373291016 127.5,57.185001373291016 127.5,57.185001373291016 C127.5,57.185001373291016 -127.5,57.185001373291016 -127.5,57.185001373291016 C102,57.185001373291016 101.4209976196289,-11.722000122070312 127.5,-57.185001373291016z"></path></g></g><g transform="matrix(0.9003536701202393,-0.06962661445140839,0.08447243273258209,1.0923274755477905,329.5877380371094,406.6880798339844)" opacity="0.9990000000000023" style="display: none;"><g opacity="1" transform="matrix(1,0,0,1,169.25,71.75)"><path fill="rgb(243,138,140)" fill-opacity="1" d=" M169,-71.5 C169,-71.5 -169,-71.5 -169,-71.5 C-169,-71.5 -0.1652868688106537,-65.25885009765625 -0.1652868688106537,-65.25885009765625 C-0.1652868688106537,-65.25885009765625 169,-71.5 169,-71.5z"></path></g></g><g transform="matrix(1,0,0,1,332,556)" opacity="1" style="display: block;"><g opacity="1" transform="matrix(1,0,0,1,66.5,56.5)"><path stroke-linecap="round" stroke-linejoin="round" fill-opacity="0" stroke="rgb(111,78,54)" stroke-opacity="1" stroke-width="5" d=" M-64,54 C-64,54 64,-54 64,-54"></path></g></g><g transform="matrix(1,0,0,1,538,557)" opacity="1" style="display: block;"><g opacity="1" transform="matrix(1,0,0,1,66,56)"><path stroke-linecap="butt" stroke-linejoin="miter" fill-opacity="0" stroke-miterlimit="10" stroke="rgb(111,78,54)" stroke-opacity="1" stroke-width="5" d=" M63.5,53.5 C63.5,53.5 -63.5,-53.5 -63.5,-53.5"></path></g></g></g></svg>