<?xml version="1.0" standalone="no"?>
<!DOCTYPE svg PUBLIC "-//W3C//DTD SVG 20010904//EN"
 "http://www.w3.org/TR/2001/REC-SVG-20010904/DTD/svg10.dtd">
<svg version="1.0" xmlns="http://www.w3.org/2000/svg"
 width="700.000000pt" height="700.000000pt" viewBox="0 0 700.000000 700.000000"
 preserveAspectRatio="xMidYMid meet">
<metadata>
Created by potrace 1.14, written by Peter Selinger 2001-2017
</metadata>
<g transform="translate(0.000000,700.000000) scale(0.100000,-0.100000)"
fill="#000000" stroke="none">
<path d="M3170 6989 c-681 -67 -1335 -331 -1865 -755 -141 -113 -426 -398
-539 -539 -404 -506 -653 -1095 -743 -1755 -26 -193 -26 -687 0 -880 89 -658
340 -1250 743 -1755 113 -141 398 -426 539 -539 544 -435 1207 -698 1903 -757
178 -15 581 -6 742 16 651 88 1242 339 1745 741 142 113 426 398 539 539 435
546 698 1206 757 1903 15 179 6 582 -16 742 -91 659 -335 1234 -741 1745 -116
146 -420 448 -564 559 -511 396 -1074 632 -1720 722 -137 19 -636 27 -780 13z
m32 -916 c9 -10 83 -211 166 -448 201 -574 312 -891 457 -1305 l121 -345 219
-6 c191 -6 233 -10 323 -33 531 -135 862 -532 947 -1136 9 -65 15 -182 15
-283 0 -252 -22 -410 -86 -608 -146 -453 -481 -751 -952 -846 -136 -28 -473
-25 -609 5 -259 56 -457 158 -622 321 -88 86 -137 150 -204 266 -217 374 -266
964 -117 1430 92 289 269 528 503 682 37 25 66 50 64 56 -3 9 -147 13 -558 15
l-555 2 -123 -352 c-68 -194 -130 -363 -137 -375 -14 -23 -16 -23 -263 -23
-230 0 -249 1 -265 19 -9 10 -18 27 -18 37 -1 11 71 226 160 479 89 253 317
903 506 1444 190 541 353 992 362 1002 16 18 36 19 334 19 289 0 318 -2 332
-17z"/>
<path d="M2668 4848 c-97 -277 -180 -511 -183 -520 -7 -17 15 -18 379 -18 302
0 386 3 386 13 0 6 -80 239 -178 517 -167 476 -179 505 -203 508 -24 3 -29 -8
-201 -500z"/>
<path d="M3945 3455 c-296 -64 -499 -296 -576 -656 -30 -138 -32 -417 -6 -554
80 -411 304 -649 653 -696 255 -34 501 58 653 243 163 199 242 521 211 857
-15 165 -49 293 -112 421 -45 90 -65 118 -143 196 -75 76 -104 98 -175 132
-47 22 -117 47 -157 56 -87 19 -263 20 -348 1z m271 -250 c18 -45 18 -74 -3
-97 -15 -16 -37 -18 -263 -18 -202 0 -250 3 -259 14 -10 12 -4 19 32 40 100
59 240 92 395 95 l83 1 15 -35z"/>
</g>
</svg>
